<mxfile host="app.diagrams.net" modified="2024-01-17T12:51:03.069Z" agent="Mozilla/5.0 (Macintosh; Intel Mac OS X 10_15_7) AppleWebKit/537.36 (KHTML, like Gecko) Chrome/120.0.0.0 Safari/537.36" version="22.1.20" etag="13Hb-Gn5Mmv2iOKWz93W" type="github">
  <diagram name="第 1 页" id="nf59W99AGzAC8T2MHkCi">
    <mxGraphModel>
      <root>
        <mxCell id="0" />
        <mxCell id="1" parent="0" />
      </root>
    </mxGraphModel>
  </diagram>
</mxfile>
